# Tiled2Unity generated file. Do not modify by hand.
# Wavefront file for 'lv9_mesh_0004.obj'

# Vertices (Count = 84)
v -2760 -60 -0.01333333
v -2790 -60 -0.01333333
v -2790 -30 -0.01333333
v -2760 -30 -0.01333333
v -2730 -60 -0.01333333
v -2760 -60 -0.01333333
v -2760 -30 -0.01333333
v -2730 -30 -0.01333333
v -2700 -60 -0.01333333
v -2730 -60 -0.01333333
v -2730 -30 -0.01333333
v -2700 -30 -0.01333333
v -2670 -60 -0.01333333
v -2700 -60 -0.01333333
v -2700 -30 -0.01333333
v -2670 -30 -0.01333333
v -2640 -60 -0.01333333
v -2670 -60 -0.01333333
v -2670 -30 -0.01333333
v -2640 -30 -0.01333333
v -2610 -60 -0.01333333
v -2640 -60 -0.01333333
v -2640 -30 -0.01333333
v -2610 -30 -0.01333333
v -2580 -60 -0.01333333
v -2610 -60 -0.01333333
v -2610 -30 -0.01333333
v -2580 -30 -0.01333333
v -2550 -60 -0.01333333
v -2580 -60 -0.01333333
v -2580 -30 -0.01333333
v -2550 -30 -0.01333333
v -2520 -60 -0.01333333
v -2550 -60 -0.01333333
v -2550 -30 -0.01333333
v -2520 -30 -0.01333333
v -2490 -60 -0.01333333
v -2520 -60 -0.01333333
v -2520 -30 -0.01333333
v -2490 -30 -0.01333333
v -2460 -60 -0.01333333
v -2490 -60 -0.01333333
v -2490 -30 -0.01333333
v -2460 -30 -0.01333333
v -2430 -60 -0.01333333
v -2460 -60 -0.01333333
v -2460 -30 -0.01333333
v -2430 -30 -0.01333333
v -2400 -60 -0.01333333
v -2430 -60 -0.01333333
v -2430 -30 -0.01333333
v -2400 -30 -0.01333333
v -2370 -60 -0.01333333
v -2400 -60 -0.01333333
v -2400 -30 -0.01333333
v -2370 -30 -0.01333333
v -2340 -60 -0.01333333
v -2370 -60 -0.01333333
v -2370 -30 -0.01333333
v -2340 -30 -0.01333333
v -2310 -60 -0.01333333
v -2340 -60 -0.01333333
v -2340 -30 -0.01333333
v -2310 -30 -0.01333333
v -2280 -60 -0.01333333
v -2310 -60 -0.01333333
v -2310 -30 -0.01333333
v -2280 -30 -0.01333333
v -2250 -60 -0.01333333
v -2280 -60 -0.01333333
v -2280 -30 -0.01333333
v -2250 -30 -0.01333333
v -2220 -60 -0.01333333
v -2250 -60 -0.01333333
v -2250 -30 -0.01333333
v -2220 -30 -0.01333333
v -2190 -60 -0.01333333
v -2220 -60 -0.01333333
v -2220 -30 -0.01333333
v -2190 -30 -0.01333333
v -2160 -60 -0.01333333
v -2190 -60 -0.01333333
v -2190 -30 -0.01333333
v -2160 -30 -0.01333333

# Texture cooridinates (Count = 4)
vt 0 0
vt 1 0
vt 1 1
vt 0 1

# Normal
vn 0 0 -1

# Mesh description
g lv9_mesh_0004

# Faces
f 1/1/1 2/2/1 3/3/1 4/4/1
f 5/1/1 6/2/1 7/3/1 8/4/1
f 9/1/1 10/2/1 11/3/1 12/4/1
f 13/1/1 14/2/1 15/3/1 16/4/1
f 17/1/1 18/2/1 19/3/1 20/4/1
f 21/1/1 22/2/1 23/3/1 24/4/1
f 25/1/1 26/2/1 27/3/1 28/4/1
f 29/1/1 30/2/1 31/3/1 32/4/1
f 33/1/1 34/2/1 35/3/1 36/4/1
f 37/1/1 38/2/1 39/3/1 40/4/1
f 41/1/1 42/2/1 43/3/1 44/4/1
f 45/1/1 46/2/1 47/3/1 48/4/1
f 49/1/1 50/2/1 51/3/1 52/4/1
f 53/1/1 54/2/1 55/3/1 56/4/1
f 57/1/1 58/2/1 59/3/1 60/4/1
f 61/1/1 62/2/1 63/3/1 64/4/1
f 65/1/1 66/2/1 67/3/1 68/4/1
f 69/1/1 70/2/1 71/3/1 72/4/1
f 73/1/1 74/2/1 75/3/1 76/4/1
f 77/1/1 78/2/1 79/3/1 80/4/1
f 81/1/1 82/2/1 83/3/1 84/4/1

