# Tiled2Unity generated file. Do not modify by hand.
# Wavefront file for 'lv9_mesh_0003.obj'

# Vertices (Count = 16)
v -2790 -3030 -0.6733333
v -2820 -3030 -0.6733333
v -2820 -3000 -0.6733333
v -2790 -3000 -0.6733333
v -2130 -3030 -0.6733333
v -2160 -3030 -0.6733333
v -2160 -3000 -0.6733333
v -2130 -3000 -0.6733333
v -2790 -60 -0.01333333
v -2820 -60 -0.01333333
v -2820 -30 -0.01333333
v -2790 -30 -0.01333333
v -2130 -60 -0.01333333
v -2160 -60 -0.01333333
v -2160 -30 -0.01333333
v -2130 -30 -0.01333333

# Texture cooridinates (Count = 4)
vt 0 0
vt 1 0
vt 1 1
vt 0 1

# Normal
vn 0 0 -1

# Mesh description
g lv9_mesh_0003

# Faces
f 1/1/1 2/2/1 3/3/1 4/4/1
f 5/1/1 6/2/1 7/3/1 8/4/1
f 9/1/1 10/2/1 11/3/1 12/4/1
f 13/1/1 14/2/1 15/3/1 16/4/1

