# Tiled2Unity generated file. Do not modify by hand.
# Wavefront file for 'lv1_mesh_0003.obj'

# Vertices (Count = 84)
v -1770 -30 -0.01
v -1800 -30 -0.01
v -1800 0 -0.01
v -1770 0 -0.01
v -1740 -30 -0.01
v -1770 -30 -0.01
v -1770 0 -0.01
v -1740 0 -0.01
v -1710 -30 -0.01
v -1740 -30 -0.01
v -1740 0 -0.01
v -1710 0 -0.01
v -1680 -30 -0.01
v -1710 -30 -0.01
v -1710 0 -0.01
v -1680 0 -0.01
v -1650 -30 -0.01
v -1680 -30 -0.01
v -1680 0 -0.01
v -1650 0 -0.01
v -1620 -30 -0.01
v -1650 -30 -0.01
v -1650 0 -0.01
v -1620 0 -0.01
v -1590 -30 -0.01
v -1620 -30 -0.01
v -1620 0 -0.01
v -1590 0 -0.01
v -1560 -30 -0.01
v -1590 -30 -0.01
v -1590 0 -0.01
v -1560 0 -0.01
v -1530 -30 -0.01
v -1560 -30 -0.01
v -1560 0 -0.01
v -1530 0 -0.01
v -1500 -30 -0.01
v -1530 -30 -0.01
v -1530 0 -0.01
v -1500 0 -0.01
v -1470 -30 -0.01
v -1500 -30 -0.01
v -1500 0 -0.01
v -1470 0 -0.01
v -1440 -30 -0.01
v -1470 -30 -0.01
v -1470 0 -0.01
v -1440 0 -0.01
v -1410 -30 -0.01
v -1440 -30 -0.01
v -1440 0 -0.01
v -1410 0 -0.01
v -1380 -30 -0.01
v -1410 -30 -0.01
v -1410 0 -0.01
v -1380 0 -0.01
v -1350 -30 -0.01
v -1380 -30 -0.01
v -1380 0 -0.01
v -1350 0 -0.01
v -1320 -30 -0.01
v -1350 -30 -0.01
v -1350 0 -0.01
v -1320 0 -0.01
v -1290 -30 -0.01
v -1320 -30 -0.01
v -1320 0 -0.01
v -1290 0 -0.01
v -1260 -30 -0.01
v -1290 -30 -0.01
v -1290 0 -0.01
v -1260 0 -0.01
v -1230 -30 -0.01
v -1260 -30 -0.01
v -1260 0 -0.01
v -1230 0 -0.01
v -1200 -30 -0.01
v -1230 -30 -0.01
v -1230 0 -0.01
v -1200 0 -0.01
v -1170 -30 -0.01
v -1200 -30 -0.01
v -1200 0 -0.01
v -1170 0 -0.01

# Texture cooridinates (Count = 4)
vt 0 0
vt 1 0
vt 1 1
vt 0 1

# Normal
vn 0 0 -1

# Mesh description
g lv1_mesh_0003

# Faces
f 1/1/1 2/2/1 3/3/1 4/4/1
f 5/1/1 6/2/1 7/3/1 8/4/1
f 9/1/1 10/2/1 11/3/1 12/4/1
f 13/1/1 14/2/1 15/3/1 16/4/1
f 17/1/1 18/2/1 19/3/1 20/4/1
f 21/1/1 22/2/1 23/3/1 24/4/1
f 25/1/1 26/2/1 27/3/1 28/4/1
f 29/1/1 30/2/1 31/3/1 32/4/1
f 33/1/1 34/2/1 35/3/1 36/4/1
f 37/1/1 38/2/1 39/3/1 40/4/1
f 41/1/1 42/2/1 43/3/1 44/4/1
f 45/1/1 46/2/1 47/3/1 48/4/1
f 49/1/1 50/2/1 51/3/1 52/4/1
f 53/1/1 54/2/1 55/3/1 56/4/1
f 57/1/1 58/2/1 59/3/1 60/4/1
f 61/1/1 62/2/1 63/3/1 64/4/1
f 65/1/1 66/2/1 67/3/1 68/4/1
f 69/1/1 70/2/1 71/3/1 72/4/1
f 73/1/1 74/2/1 75/3/1 76/4/1
f 77/1/1 78/2/1 79/3/1 80/4/1
f 81/1/1 82/2/1 83/3/1 84/4/1

