# Tiled2Unity generated file. Do not modify by hand.
# Wavefront file for 'lv4_mesh_0010.obj'

# Vertices (Count = 16)
v -2400 -3000 -0.6666667
v -2430 -3000 -0.6666667
v -2430 -2970 -0.6666667
v -2400 -2970 -0.6666667
v -1740 -3000 -0.6666667
v -1770 -3000 -0.6666667
v -1770 -2970 -0.6666667
v -1740 -2970 -0.6666667
v -2400 -30 -0.006666667
v -2430 -30 -0.006666667
v -2430 0 -0.006666667
v -2400 0 -0.006666667
v -1770 -30 -0.006666667
v -1800 -30 -0.006666667
v -1800 0 -0.006666667
v -1770 0 -0.006666667

# Texture cooridinates (Count = 4)
vt 0 0
vt 1 0
vt 1 1
vt 0 1

# Normal
vn 0 0 -1

# Mesh description
g lv4_mesh_0010

# Faces
f 1/1/1 2/2/1 3/3/1 4/4/1
f 5/1/1 6/2/1 7/3/1 8/4/1
f 9/1/1 10/2/1 11/3/1 12/4/1
f 13/1/1 14/2/1 15/3/1 16/4/1

